<svg width="500" height="500" viewBox="0 0 500 500" fill="none" xmlns="http://www.w3.org/2000/svg">
<path d="M206.801 329.981H206.778L230.078 281.391H253.25L221.789 349.217L197.5 349.355L206.801 329.981Z" fill="url(#paint0_radial_52570_43397)"/>
<path d="M256.04 329.981H256.017L279.316 281.391H302.489L271.028 349.217L246.738 349.355L256.04 329.981Z" fill="url(#paint1_radial_52570_43397)"/>
<path d="M221.962 349.047L261.378 388.462L197.5 349.346L221.962 349.047Z" fill="url(#paint2_radial_52570_43397)"/>
<path d="M279.634 281.408L240.219 241.992L302.496 281.408H279.634Z" fill="url(#paint3_radial_52570_43397)"/>
<path d="M200.819 377.111C201.726 376.799 202.594 377.668 202.282 378.575L181.055 440.209H181.035C178.854 430.344 173.672 421.621 166.486 415.037C166.122 414.673 165.759 414.341 165.385 414.05L165.416 413.967L165.333 413.998L151.719 418.682L128.779 426.574C128.779 426.574 128.759 426.595 128.748 426.595L128.727 426.574C118.332 425.349 108.934 420.821 101.624 414.081C100.876 413.406 100.159 412.721 99.4844 411.994L109.329 408.609L120.004 404.933L126.599 402.669L142.477 397.196L183.008 383.239L200.819 377.111Z" fill="url(#paint4_radial_52570_43397)"/>
<path d="M181.064 440.215V440.246L173.38 462.583L166.318 483.124C134.708 472.688 109.919 447.266 100.345 415.271C100.013 414.202 99.7218 413.111 99.4414 412.021L99.4933 412C100.168 412.727 100.895 413.412 101.633 414.087C108.943 420.827 118.341 425.355 128.736 426.58L128.757 426.601L124.126 428.19L151.209 455.273L152.309 452.074L160.43 428.439L164.491 416.673L165.394 414.046C165.778 414.337 166.142 414.669 166.495 415.032C173.681 421.616 178.863 430.339 181.044 440.205H181.064V440.215Z" fill="url(#paint5_radial_52570_43397)"/>
<path d="M107.606 452.902L94.4131 466.095C93.514 466.994 93.514 468.452 94.4131 469.351L109.933 484.871C110.832 485.77 112.29 485.77 113.189 484.871L126.382 471.678C127.281 470.779 127.281 469.321 126.382 468.422L110.862 452.902C109.962 452.003 108.505 452.003 107.606 452.902Z" fill="url(#paint6_radial_52570_43397)"/>
<path d="M388.705 315.249C388.705 321.742 388.256 328.13 387.382 334.381C378.08 401.942 320.108 453.963 249.991 453.963C228.983 453.963 209.079 449.301 191.236 440.932L203.795 404.464C217.621 411.647 233.334 415.699 249.991 415.699C305.465 415.699 350.429 370.723 350.429 315.249C350.429 259.775 305.465 214.799 249.991 214.799C194.517 214.799 149.542 259.775 149.542 315.249C149.542 338.756 157.611 360.363 171.126 377.469L133.414 390.454C119.393 368.789 111.266 342.969 111.266 315.249C111.266 238.64 173.37 176.523 249.991 176.523C289.499 176.523 325.162 193.042 350.429 219.565C374.143 244.453 388.705 278.147 388.705 315.249Z" fill="url(#paint7_radial_52570_43397)"/>
<path d="M426.992 315.256C426.992 321.725 426.646 328.103 425.967 334.388C416.435 423.142 341.288 492.246 250.002 492.246C224.653 492.246 200.548 486.916 178.745 477.315L184.604 460.278V460.22L191.247 440.939C209.09 449.308 228.993 453.97 250.002 453.97C320.118 453.97 378.091 401.949 387.392 334.388C388.267 328.137 388.716 321.748 388.716 315.256C388.716 278.154 374.154 244.46 350.44 219.572C325.172 193.049 289.509 176.53 250.002 176.53C173.381 176.53 111.276 238.646 111.276 315.256C111.276 342.975 119.403 368.796 133.424 390.461L124.733 393.454L100.087 401.949L96.3685 403.227C81.5071 377.314 73 347.281 73 315.256C73 217.5 152.245 138.266 250.002 138.266C287.299 138.266 321.903 149.8 350.44 169.508C364.898 179.488 377.803 191.576 388.716 205.309C412.671 235.504 426.992 273.71 426.992 315.256Z" fill="url(#paint8_radial_52570_43397)"/>
<path d="M426.999 42.2882V315.25C426.999 273.705 412.678 235.498 388.723 205.303V24.4453L426.999 42.2882Z" fill="url(#paint9_linear_52570_43397)"/>
<path d="M388.721 24.4496V205.296C377.808 191.563 364.904 179.476 350.445 169.495L350.445 7.75781L388.721 24.4611V24.4496Z" fill="url(#paint10_linear_52570_43397)"/>
<defs>
<radialGradient id="paint0_radial_52570_43397" cx="0" cy="0" r="1" gradientTransform="matrix(-6.03549e-07 -80.7458 47.3055 3.54589 214.097 365.308)" gradientUnits="userSpaceOnUse">
<stop stop-color="#F5F5FF"/>
<stop offset="1" stop-color="#4B4EFC"/>
</radialGradient>
<radialGradient id="paint1_radial_52570_43397" cx="0" cy="0" r="1" gradientTransform="matrix(-3.82442e-06 87.4746 -51.2476 -3.84139 274.66 264.376)" gradientUnits="userSpaceOnUse">
<stop stop-color="#F5F5FF"/>
<stop offset="1" stop-color="#4B4EFC"/>
</radialGradient>
<radialGradient id="paint2_radial_52570_43397" cx="0" cy="0" r="1" gradientTransform="matrix(-40.3729 -33.6441 40.4851 -45.4411 261.199 392.214)" gradientUnits="userSpaceOnUse">
<stop stop-color="#F5F5FF"/>
<stop offset="1" stop-color="#4B4EFC"/>
</radialGradient>
<radialGradient id="paint3_radial_52570_43397" cx="0" cy="0" r="1" gradientTransform="matrix(47.1017 47.1017 -54.971 51.331 241.024 230.749)" gradientUnits="userSpaceOnUse">
<stop stop-color="#F5F5FF"/>
<stop offset="1" stop-color="#4B4EFC"/>
</radialGradient>
<radialGradient id="paint4_radial_52570_43397" cx="0" cy="0" r="1" gradientTransform="matrix(-0.464421 70.7081 -81.872 -3.24273 151.964 333.577)" gradientUnits="userSpaceOnUse">
<stop stop-color="#F5F5FF"/>
<stop offset="1" stop-color="#4B4EFC"/>
</radialGradient>
<radialGradient id="paint5_radial_52570_43397" cx="0" cy="0" r="1" gradientTransform="matrix(-0.366023 78.7446 -64.5256 -3.61129 140.802 364.372)" gradientUnits="userSpaceOnUse">
<stop stop-color="#F5F5FF"/>
<stop offset="1" stop-color="#4B4EFC"/>
</radialGradient>
<radialGradient id="paint6_radial_52570_43397" cx="0" cy="0" r="1" gradientTransform="matrix(20.7141 20.8616 -13.9563 12.0496 88.5467 446.815)" gradientUnits="userSpaceOnUse">
<stop stop-color="#F5F5FF"/>
<stop offset="1" stop-color="#4B4EFC"/>
</radialGradient>
<radialGradient id="paint7_radial_52570_43397" cx="0" cy="0" r="1" gradientTransform="matrix(188.407 174.949 -133.045 127.043 146.808 210.571)" gradientUnits="userSpaceOnUse">
<stop stop-color="#F5F5FF"/>
<stop offset="1" stop-color="#4B4EFC"/>
</radialGradient>
<radialGradient id="paint8_radial_52570_43397" cx="0" cy="0" r="1" gradientUnits="userSpaceOnUse" gradientTransform="translate(234.293 277.866) rotate(42.1376) scale(571.672 900.826)">
<stop stop-color="#4B4EFC"/>
<stop offset="1" stop-color="#F5F5FF"/>
</radialGradient>
<linearGradient id="paint9_linear_52570_43397" x1="294.859" y1="143.272" x2="427.871" y2="187.905" gradientUnits="userSpaceOnUse">
<stop stop-color="#F5F5FF"/>
<stop offset="1" stop-color="#4B4EFC"/>
</linearGradient>
<linearGradient id="paint10_linear_52570_43397" x1="483.264" y1="89.4457" x2="343.85" y2="83.7275" gradientUnits="userSpaceOnUse">
<stop stop-color="#F5F5FF"/>
<stop offset="1" stop-color="#4B4EFC"/>
</linearGradient>
</defs>
</svg>
