<svg width="139" height="36" viewBox="0 0 139 36" fill="none" xmlns="http://www.w3.org/2000/svg">
<path d="M9.94311 23.9449H9.9414L11.6727 20.3343H13.3946L11.0568 25.3743L9.25195 25.3846L9.94311 23.9449Z" fill="url(#paint0_radial_1_689)"/>
<path d="M13.6017 23.9449H13.6L15.3313 20.3343H17.0532L14.7154 25.3743L12.9105 25.3846L13.6017 23.9449Z" fill="url(#paint1_radial_1_689)"/>
<path d="M11.0697 25.3623L13.9985 28.2912L9.25195 25.3846L11.0697 25.3623Z" fill="url(#paint2_radial_1_689)"/>
<path d="M15.3543 20.3343L12.4254 17.4055L17.0531 20.3343H15.3543Z" fill="url(#paint3_radial_1_689)"/>
<path d="M9.5001 27.4461C9.56748 27.4229 9.63201 27.4875 9.60881 27.5548L8.03154 32.1347H8.03C7.86795 31.4016 7.4829 30.7535 6.94892 30.2642C6.92191 30.2372 6.8949 30.2125 6.86712 30.1909L6.86943 30.1847L6.86326 30.1871L5.85162 30.5351L4.14705 31.1215C4.14705 31.1215 4.1455 31.1231 4.14473 31.1231L4.14319 31.1215C3.37076 31.0305 2.67242 30.694 2.12917 30.1932C2.07362 30.1431 2.02037 30.0922 1.97021 30.0381L2.70174 29.7866L3.495 29.5134L3.985 29.3452L5.16486 28.9385L8.17661 27.9014L9.5001 27.4461Z" fill="url(#paint4_radial_1_689)"/>
<path d="M8.03149 32.1347V32.137L7.46047 33.7969L6.93575 35.3232C4.58684 34.5477 2.74491 32.6587 2.03344 30.2812C2.00875 30.2017 1.98714 30.1207 1.96631 30.0397L1.97017 30.0381C2.02032 30.0922 2.07434 30.1431 2.12913 30.1932C2.67237 30.694 3.37071 31.0305 4.14314 31.1215L4.14468 31.1231L3.80053 31.2411L5.81299 33.2536L5.89479 33.0159L6.49822 31.2597L6.79994 30.3854L6.86707 30.1902C6.89562 30.2118 6.92263 30.2365 6.94887 30.2635C7.48285 30.7527 7.86791 31.4009 8.02995 32.1339H8.03149V32.1347Z" fill="url(#paint5_radial_1_689)"/>
<path d="M2.57233 33.0787L1.59204 34.059C1.52523 34.1258 1.52523 34.2341 1.59204 34.3009L2.7453 35.4542C2.81211 35.521 2.92043 35.521 2.98724 35.4542L3.96754 34.4739C4.03435 34.4071 4.03435 34.2988 3.96754 34.2319L2.81428 33.0787C2.74747 33.0119 2.63914 33.0119 2.57233 33.0787Z" fill="url(#paint6_radial_1_689)"/>
<path d="M23.46 22.8484C23.46 23.3308 23.4267 23.8055 23.3617 24.27C22.6705 29.2903 18.3627 33.1558 13.1526 33.1558C11.5915 33.1558 10.1125 32.8094 8.78664 32.1875L9.71987 29.4776C10.7472 30.0114 11.9148 30.3125 13.1526 30.3125C17.2747 30.3125 20.6158 26.9705 20.6158 22.8484C20.6158 18.7262 17.2747 15.3842 13.1526 15.3842C9.03043 15.3842 5.68841 18.7262 5.68841 22.8484C5.68841 24.5951 6.28804 26.2006 7.29227 27.4718L4.49002 28.4366C3.44815 26.8268 2.84424 24.9081 2.84424 22.8484C2.84424 17.1557 7.45908 12.54 13.1526 12.54C16.0883 12.54 18.7383 13.7675 20.6158 15.7383C22.378 17.5877 23.46 20.0914 23.46 22.8484Z" fill="url(#paint7_radial_1_689)"/>
<path d="M26.3041 22.8484C26.3041 23.3291 26.2785 23.803 26.228 24.27C25.5197 30.8651 19.9358 36 13.1525 36C11.2689 36 9.47774 35.604 7.85763 34.8906L8.29302 33.6246V33.6203L8.78658 32.1875C10.1124 32.8094 11.5914 33.1558 13.1525 33.1558C18.3627 33.1558 22.6704 29.2903 23.3616 24.27C23.4266 23.8055 23.46 23.3308 23.46 22.8484C23.46 20.0914 22.3779 17.5877 20.6158 15.7383C18.7382 13.7675 16.0882 12.54 13.1525 12.54C7.45901 12.54 2.84418 17.1557 2.84418 22.8484C2.84418 24.9081 3.44809 26.8268 4.48995 28.4366L3.84413 28.659L2.01274 29.2903L1.73645 29.3853C0.632138 27.4598 0 25.2281 0 22.8484C0 15.5844 5.88851 9.69672 13.1525 9.69672C15.924 9.69672 18.4953 10.5538 20.6158 12.0182C21.6902 12.7599 22.6491 13.658 23.46 14.6785C25.24 16.9222 26.3041 19.7613 26.3041 22.8484Z" fill="url(#paint8_radial_1_689)"/>
<path d="M26.3041 2.56617V22.8492C26.3041 19.7621 25.24 16.9231 23.46 14.6794V1.24032L26.3041 2.56617Z" fill="url(#paint9_linear_1_689)"/>
<path d="M23.46 1.24032V14.6785C22.6491 13.658 21.6902 12.7599 20.6158 12.0182L20.6158 0L23.46 1.24117V1.24032Z" fill="url(#paint10_linear_1_689)"/>
<path d="M51.9048 21.1462C51.9048 22.0881 51.7231 22.9764 51.3599 23.8102C51.015 24.6252 50.5337 25.3408 49.9165 25.9567C49.3764 26.4957 48.7528 26.9373 48.0464 27.2819L47.7378 27.4245C46.9025 27.7688 46.0123 27.9411 45.0688 27.9411C44.1255 27.9411 43.236 27.7688 42.4009 27.4245L42.3999 27.4235C41.5835 27.0614 40.8666 26.5726 40.2495 25.9567C39.6323 25.3408 39.1417 24.6251 38.7788 23.8102V23.8093C38.4338 22.9756 38.2612 22.0878 38.2612 21.1462V20.7409C38.2612 20.6109 38.2802 20.4726 38.3169 20.3259C38.4081 19.4946 38.6434 18.7172 39.0239 17.9938V17.9929C39.423 17.2507 39.922 16.6076 40.521 16.0641H40.522C41.1389 15.5209 41.8282 15.0947 42.5903 14.7868H42.5913C43.3721 14.4788 44.198 14.3249 45.0688 14.3249C45.3588 14.3249 45.6403 14.3519 45.9126 14.4059H45.9136C46.2024 14.442 46.4733 14.4783 46.7261 14.5143L46.7729 14.5212L46.7622 14.5671L46.1128 17.2946L46.103 17.3347L46.062 17.3268C45.9725 17.309 45.8852 17.2934 45.8003 17.28L45.5513 17.2458C45.4091 17.228 45.2479 17.2194 45.0688 17.2194C44.5338 17.2195 44.0258 17.3263 43.5444 17.5397H43.5435C43.0795 17.7356 42.6689 18.0117 42.312 18.3679C41.9552 18.724 41.67 19.1433 41.4556 19.6247L41.4546 19.6237C41.2586 20.1042 41.1616 20.6118 41.1616 21.1462C41.1616 21.6802 41.2588 22.1874 41.4546 22.6677H41.4556C41.6699 23.1309 41.9551 23.5409 42.312 23.8972C42.6686 24.253 43.079 24.5378 43.5425 24.7516C44.0241 24.9475 44.5332 25.0455 45.0688 25.0456C45.6046 25.0456 46.1134 24.9475 46.5952 24.7516C47.0772 24.5377 47.4964 24.253 47.853 23.8972C48.2099 23.541 48.4868 23.1316 48.6831 22.6686V22.6677C48.897 22.1872 49.0044 21.6802 49.0044 21.1462V7.99969L49.0776 8.07098L51.8911 10.8259L51.9048 10.8386V21.1462Z" fill="black" stroke="#1E1E1E" stroke-width="0.0861038"/>
<path d="M59.8224 7.84323C60.5841 7.84326 61.3188 7.95209 62.0265 8.1694C62.7335 8.3865 63.3774 8.69401 63.9581 9.09225C64.5568 9.49059 65.093 9.97063 65.5646 10.5317C65.9775 11.023 66.3075 11.5497 66.5538 12.1108L66.6544 12.354L66.7814 12.7065C67.0589 13.5277 67.1984 14.3425 67.1984 15.1508C67.1984 16.2006 66.9985 17.1519 66.5988 18.0044C66.2653 18.7332 65.8142 19.4132 65.2452 20.0444L64.9943 20.312L60.3048 25.019H67.5773V28.1567H52.7902L52.8644 28.0835L62.8497 18.145C63.6543 17.2161 64.0548 16.2182 64.0548 15.1508C64.0548 14.6357 63.9726 14.1553 63.8087 13.7094L63.7335 13.52C63.5195 13.0037 63.2248 12.541 62.8507 12.1313L62.6818 11.9848C61.8298 11.2789 60.877 10.9273 59.8224 10.9272C59.2513 10.9272 58.7161 11.0427 58.2169 11.2739L58.215 11.2749C57.7143 11.4891 57.2673 11.7746 56.8741 12.1313C56.6781 12.345 56.49 12.5669 56.3116 12.7983C56.1516 13.029 56.0285 13.2782 55.9396 13.5444L55.9249 13.5883L55.882 13.5698L53.0675 12.4087L53.0284 12.393L53.0441 12.354C53.3892 11.4658 53.925 10.6591 54.6505 9.93503L54.6515 9.93405C55.4126 9.22878 56.2285 8.70309 57.0997 8.35886C57.9707 8.01477 58.8789 7.84323 59.8224 7.84323Z" fill="black" stroke="#1E1E1E" stroke-width="0.0861038"/>
<path d="M82.168 21.1462C82.168 22.0881 81.9863 22.9764 81.623 23.8102C81.2782 24.6252 80.7969 25.3408 80.1797 25.9567C79.6396 26.4957 79.016 26.9373 78.3096 27.2819L78.001 27.4245C77.1657 27.7688 76.2755 27.9411 75.332 27.9411C74.3887 27.9411 73.4992 27.7688 72.6641 27.4245L72.6631 27.4235C71.8467 27.0614 71.1298 26.5726 70.5127 25.9567C69.8955 25.3408 69.4049 24.6251 69.042 23.8102V23.8093C68.697 22.9756 68.5244 22.0878 68.5244 21.1462V20.7409C68.5244 20.6109 68.5433 20.4726 68.5801 20.3259C68.6713 19.4946 68.9066 18.7172 69.2871 17.9938V17.9929C69.6862 17.2507 70.1852 16.6076 70.7842 16.0641H70.7852C71.4021 15.5209 72.0914 15.0947 72.8535 14.7868H72.8545C73.6352 14.4788 74.4612 14.3249 75.332 14.3249C75.622 14.3249 75.9035 14.3519 76.1758 14.4059H76.1768C76.4656 14.442 76.7365 14.4783 76.9893 14.5143L77.0361 14.5212L77.0254 14.5671L76.376 17.2946L76.3662 17.3347L76.3252 17.3268C76.2357 17.309 76.1484 17.2934 76.0635 17.28L75.8145 17.2458C75.6723 17.228 75.5111 17.2194 75.332 17.2194C74.7969 17.2195 74.289 17.3263 73.8076 17.5397H73.8066C73.3427 17.7356 72.9321 18.0117 72.5752 18.3679C72.2184 18.724 71.9331 19.1433 71.7188 19.6247L71.7178 19.6237C71.5218 20.1042 71.4248 20.6118 71.4248 21.1462C71.4248 21.6802 71.522 22.1874 71.7178 22.6677H71.7188C71.933 23.1309 72.2183 23.5409 72.5752 23.8972C72.9317 24.253 73.3422 24.5378 73.8057 24.7516C74.2873 24.9475 74.7964 25.0455 75.332 25.0456C75.8678 25.0456 76.3766 24.9475 76.8584 24.7516C77.3404 24.5377 77.7596 24.253 78.1162 23.8972C78.4731 23.541 78.75 23.1316 78.9463 22.6686V22.6677C79.1602 22.1872 79.2676 21.6802 79.2676 21.1462V7.99969L79.3408 8.07098L82.1543 10.8259L82.168 10.8386V21.1462Z" fill="black" stroke="#1E1E1E" stroke-width="0.0861038"/>
<g filter="url(#filter0_i_1_689)">
<path d="M102.883 12.3739C102.095 12.3739 101.346 12.5313 100.636 12.8461C99.9526 13.1346 99.3482 13.5542 98.8225 14.105C98.3232 14.6296 97.9158 15.246 97.6005 15.9542C97.3114 16.6361 97.1668 17.3705 97.1668 18.1574C97.1405 19.495 96.8646 20.754 96.339 21.9343C95.8133 23.0884 95.0906 24.1113 94.1708 25.0031C93.2772 25.8686 92.226 26.5637 91.017 27.0882C89.8344 27.5866 88.5729 27.8358 87.2325 27.8358V23.6261C88.021 23.6261 88.7569 23.4818 89.4402 23.1933C90.1498 22.8785 90.7542 22.472 91.2536 21.9736C91.7792 21.4491 92.1866 20.8458 92.4756 20.1639C92.791 19.4557 92.9487 18.7082 92.9487 17.9213C92.975 16.5837 93.2378 15.3247 93.7371 14.1444C94.2628 12.9641 94.9592 11.9281 95.8265 11.0363C96.72 10.1445 97.7582 9.44945 98.9408 8.95111C100.123 8.42653 101.385 8.16425 102.725 8.16425L102.883 12.3739Z" fill="url(#paint11_radial_1_689)"/>
</g>
<path d="M110.274 8.54523C111.154 8.54523 111.992 8.71811 112.787 9.06281C113.58 9.40723 114.272 9.87232 114.859 10.4583C115.446 11.0441 115.912 11.7329 116.257 12.5247L116.378 12.8187C116.643 13.5089 116.775 14.2392 116.775 15.0081C116.775 15.7919 116.643 16.5364 116.378 17.2415L116.257 17.5413C115.912 18.3164 115.446 18.9975 114.859 19.5833C114.345 20.0961 113.752 20.5162 113.08 20.8441L112.787 20.9788C111.992 21.3063 111.154 21.47 110.274 21.47C109.705 21.47 109.179 21.41 108.695 21.2894L108.655 21.2786L108.665 21.2396L109.308 18.6448L109.319 18.6009L109.362 18.6165C109.631 18.7172 109.935 18.7679 110.274 18.7679C110.72 18.7679 111.147 18.6968 111.553 18.554L111.726 18.4886C112.184 18.2851 112.583 18.0145 112.922 17.6761C113.262 17.3376 113.524 16.9392 113.71 16.4818L113.711 16.4808C113.915 16.0241 114.017 15.5333 114.017 15.0081C114.017 14.5001 113.915 14.0258 113.711 13.5862L113.71 13.5843C113.524 13.1271 113.261 12.7293 112.922 12.3909C112.583 12.0525 112.184 11.7902 111.726 11.6038L111.725 11.6028C111.267 11.3997 110.783 11.2982 110.274 11.2982C109.765 11.2982 109.282 11.3998 108.824 11.6028L108.823 11.6038C108.364 11.7902 107.966 12.0524 107.626 12.3909C107.287 12.7294 107.015 13.1268 106.811 13.5843C106.625 14.0241 106.532 14.4995 106.532 15.0081V27.513L106.461 27.4427L103.836 24.7972L103.825 24.7855V15.0081C103.825 14.1296 103.989 13.3015 104.317 12.5257L104.452 12.2337C104.778 11.5632 105.19 10.9711 105.689 10.4583H105.69C106.277 9.87247 106.959 9.40726 107.736 9.06281L108.036 8.94073C108.742 8.67674 109.489 8.54526 110.274 8.54523Z" fill="black" stroke="#1E1E1E" stroke-width="0.0818937"/>
<path d="M121.587 12.067C122.381 11.7224 123.228 11.5505 124.125 11.5504C125.005 11.5504 125.834 11.7228 126.61 12.067H126.611C127.405 12.3943 128.096 12.8512 128.684 13.4372C129.271 14.023 129.737 14.7125 130.082 15.5045C130.428 16.2806 130.601 17.1175 130.601 18.0133C130.601 18.797 130.469 19.5417 130.204 20.2467L130.082 20.5465C129.78 21.2247 129.386 21.8306 128.899 22.3639L128.684 22.5885C128.097 23.1572 127.406 23.6134 126.612 23.9577V23.9586C125.835 24.2862 125.005 24.4499 124.125 24.4499C123.228 24.4498 122.382 24.286 121.588 23.9586L121.587 23.9577C120.811 23.6133 120.128 23.1571 119.541 22.5885L119.54 22.5875C118.971 22.0018 118.513 21.3212 118.168 20.5465V20.5456C117.84 19.7529 117.676 18.9087 117.676 18.0133C117.676 17.1178 117.84 16.2814 118.168 15.5055V15.5045C118.513 14.7129 118.971 14.0239 119.54 13.4381L119.541 13.4372C120.128 12.8513 120.81 12.3944 121.587 12.067ZM124.125 14.3034C123.616 14.3034 123.133 14.405 122.675 14.6081L122.674 14.609C122.216 14.7954 121.817 15.0576 121.478 15.3961L121.353 15.5211C121.071 15.8167 120.84 16.1635 120.662 16.5631L120.663 16.5641C120.477 17.0214 120.383 17.5048 120.383 18.0133C120.383 18.5217 120.477 19.0044 120.663 19.4616C120.867 19.9013 121.138 20.2902 121.477 20.6286C121.816 20.95 122.214 21.213 122.673 21.4166C123.131 21.6029 123.616 21.6959 124.125 21.6959C124.571 21.6959 124.998 21.6248 125.404 21.4821L125.577 21.4166C126.036 21.2131 126.425 20.9506 126.747 20.6295C127.087 20.2908 127.35 19.9009 127.536 19.4606H127.537C127.741 19.0037 127.842 18.5212 127.842 18.0133C127.842 17.5053 127.741 17.0221 127.537 16.5651L127.536 16.5641C127.373 16.1639 127.151 15.816 126.871 15.5202L126.623 15.2721C126.327 14.9929 125.978 14.7721 125.577 14.609L125.576 14.6081C125.118 14.4049 124.634 14.3034 124.125 14.3034Z" fill="black" stroke="#1E1E1E" stroke-width="0.0818937"/>
<path d="M138.043 27.5065H138.002C137.122 27.5065 136.293 27.3428 135.516 27.0153L135.515 27.0144C134.739 26.67 134.057 26.2137 133.47 25.6452C132.883 25.0765 132.408 24.4045 132.045 23.6296V23.6286C131.7 22.853 131.519 22.0256 131.501 21.1472V11.2146L131.513 11.2028L134.19 8.50557L134.26 8.43526V14.5817H137.992V17.3347H134.26V21.0183C134.26 21.5267 134.354 22.0093 134.541 22.4665H134.54C134.743 22.9241 135.016 23.3223 135.355 23.6608C135.694 23.999 136.092 24.27 136.55 24.4733C137.009 24.6596 137.493 24.7526 138.002 24.7526H138.043V27.5065Z" fill="black" stroke="#1E1E1E" stroke-width="0.0818937"/>
<defs>
<filter id="filter0_i_1_689" x="87.2325" y="8.16425" width="15.6504" height="20.1733" filterUnits="userSpaceOnUse" color-interpolation-filters="sRGB">
<feFlood flood-opacity="0" result="BackgroundImageFix"/>
<feBlend mode="normal" in="SourceGraphic" in2="BackgroundImageFix" result="shape"/>
<feColorMatrix in="SourceAlpha" type="matrix" values="0 0 0 0 0 0 0 0 0 0 0 0 0 0 0 0 0 0 127 0" result="hardAlpha"/>
<feOffset dy="0.501751"/>
<feGaussianBlur stdDeviation="0.250876"/>
<feComposite in2="hardAlpha" operator="arithmetic" k2="-1" k3="1"/>
<feColorMatrix type="matrix" values="0 0 0 0 0 0 0 0 0 0 0 0 0 0 0 0 0 0 0.25 0"/>
<feBlend mode="normal" in2="shape" result="effect1_innerShadow_1_689"/>
</filter>
<radialGradient id="paint0_radial_1_689" cx="0" cy="0" r="1" gradientUnits="userSpaceOnUse" gradientTransform="translate(10.4853 26.57) rotate(-90) scale(6 3.51514)">
<stop stop-color="#F5F5FF"/>
<stop offset="1" stop-color="#4B4EFC"/>
</radialGradient>
<radialGradient id="paint1_radial_1_689" cx="0" cy="0" r="1" gradientUnits="userSpaceOnUse" gradientTransform="translate(14.9853 19.07) rotate(90) scale(6.5 3.80807)">
<stop stop-color="#F5F5FF"/>
<stop offset="1" stop-color="#4B4EFC"/>
</radialGradient>
<radialGradient id="paint2_radial_1_689" cx="0" cy="0" r="1" gradientUnits="userSpaceOnUse" gradientTransform="translate(13.9853 28.57) rotate(-140.194) scale(3.90512 4.51987)">
<stop stop-color="#F5F5FF"/>
<stop offset="1" stop-color="#4B4EFC"/>
</radialGradient>
<radialGradient id="paint3_radial_1_689" cx="0" cy="0" r="1" gradientUnits="userSpaceOnUse" gradientTransform="translate(12.4852 16.57) rotate(45) scale(4.94975 5.58544)">
<stop stop-color="#F5F5FF"/>
<stop offset="1" stop-color="#4B4EFC"/>
</radialGradient>
<radialGradient id="paint4_radial_1_689" cx="0" cy="0" r="1" gradientUnits="userSpaceOnUse" gradientTransform="translate(5.86982 24.2112) rotate(90.3763) scale(5.25424 6.08514)">
<stop stop-color="#F5F5FF"/>
<stop offset="1" stop-color="#4B4EFC"/>
</radialGradient>
<radialGradient id="paint5_radial_1_689" cx="0" cy="0" r="1" gradientUnits="userSpaceOnUse" gradientTransform="translate(5.0397 26.499) rotate(90.2663) scale(5.85136 4.79592)">
<stop stop-color="#F5F5FF"/>
<stop offset="1" stop-color="#4B4EFC"/>
</radialGradient>
<radialGradient id="paint6_radial_1_689" cx="0" cy="0" r="1" gradientUnits="userSpaceOnUse" gradientTransform="translate(1.15612 32.6263) rotate(45.2033) scale(2.18453 1.36678)">
<stop stop-color="#F5F5FF"/>
<stop offset="1" stop-color="#4B4EFC"/>
</radialGradient>
<radialGradient id="paint7_radial_1_689" cx="0" cy="0" r="1" gradientUnits="userSpaceOnUse" gradientTransform="translate(5.48529 15.07) rotate(42.8789) scale(19.105 13.6448)">
<stop stop-color="#F5F5FF"/>
<stop offset="1" stop-color="#4B4EFC"/>
</radialGradient>
<radialGradient id="paint8_radial_1_689" cx="0" cy="0" r="1" gradientUnits="userSpaceOnUse" gradientTransform="translate(11.9852 20.07) rotate(42.1376) scale(42.4794 66.9379)">
<stop stop-color="#4B4EFC"/>
<stop offset="1" stop-color="#F5F5FF"/>
</radialGradient>
<linearGradient id="paint9_linear_1_689" x1="16.4852" y1="10.07" x2="26.369" y2="13.3866" gradientUnits="userSpaceOnUse">
<stop stop-color="#F5F5FF"/>
<stop offset="1" stop-color="#4B4EFC"/>
</linearGradient>
<linearGradient id="paint10_linear_1_689" x1="30.4853" y1="6.07001" x2="20.1258" y2="5.6451" gradientUnits="userSpaceOnUse">
<stop stop-color="#F5F5FF"/>
<stop offset="1" stop-color="#4B4EFC"/>
</linearGradient>
<radialGradient id="paint11_radial_1_689" cx="0" cy="0" r="1" gradientUnits="userSpaceOnUse" gradientTransform="translate(95.163 -5.00864) rotate(90.1846) scale(21.7793 12.3753)">
<stop stop-color="#F5F5FF"/>
<stop offset="1" stop-color="#4B4EFC"/>
</radialGradient>
</defs>
</svg>
