<svg width="14" height="12" viewBox="0 0 14 12" fill="none" xmlns="http://www.w3.org/2000/svg">
<path d="M0.125 10.725C0.125 11.2222 0.531237 11.625 1.03176 11.625H1.04479C0.536606 11.625 0.125 11.2222 0.125 10.725Z" fill="#FBBC05"/>
<path d="M7.91674 3.74998V6.09972L11.0846 3.54448V1.275C11.0846 0.777748 10.6784 0.375 10.1779 0.375H3.31473L3.30859 3.74998H7.91674Z" fill="#FBBC05"/>
<path d="M7.91805 8.45045H3.30224L3.29688 11.6252H10.1792C10.6805 11.6252 11.086 11.2224 11.086 10.7252V8.6762L7.91805 6.10071V8.45045Z" fill="#34A853"/>
<path d="M3.31514 0.375L0.125 3.74998H3.30977L3.31514 0.375Z" fill="#EA4335"/>
<path d="M0.125 8.45026V10.725C0.125 11.2222 0.536606 11.625 1.04479 11.625H3.29597L3.30134 8.45026H0.125Z" fill="#1967D2"/>
<path d="M3.30977 3.75H0.125V8.45023H3.30134L3.30977 3.75Z" fill="#4285F4"/>
<path d="M13.8706 9.9249V2.19993C13.692 1.17469 12.5676 2.34993 12.5676 2.34993L11.0859 3.54468V8.6754L13.2068 10.3996C13.9725 10.5001 13.8706 9.9249 13.8706 9.9249Z" fill="#34A853"/>
<path d="M7.91797 6.09971L11.0866 8.67595V3.54523L7.91797 6.09971Z" fill="#188038"/>
</svg>
