<svg width="198" height="44" viewBox="0 0 198 44" fill="none" xmlns="http://www.w3.org/2000/svg">
<g clip-path="url(#clip0_1_812)">
<g clip-path="url(#clip1_1_812)">
<path d="M69.9033 25.3343L68.723 28.6784H68.6246C68.4279 27.9243 68.0673 26.7768 67.4772 25.3999L61.1496 9.49908H54.9532V34.842H59.0514V19.2035C59.0514 18.2199 59.0514 17.1052 59.0186 15.7283C58.9858 15.0398 58.9202 14.5152 58.8875 14.1218H58.9858C59.1825 15.1053 59.412 15.8266 59.5759 16.2856L67.1821 34.7764H70.0672L77.6078 16.1217C77.7717 15.6955 77.9356 14.8431 78.0995 14.1218H78.1979C78.0995 15.9905 78.034 17.6626 78.0012 18.6789V34.7436H82.3616V9.43351H76.3947L69.9033 25.3343ZM86.4925 16.5807H90.7546V34.7436H86.4925V16.5807ZM88.6563 8.90895C87.9351 8.90895 87.3449 9.17123 86.8532 9.63022C86.3614 10.0892 86.0991 10.6793 86.0991 11.4006C86.0991 12.0891 86.3614 12.6792 86.8532 13.1382C87.3449 13.5972 87.9351 13.8267 88.6563 13.8267C89.3776 13.8267 90.0005 13.5644 90.4595 13.1382C90.9513 12.6792 91.2136 12.0891 91.2136 11.4006C91.2136 10.7121 90.9513 10.122 90.4595 9.63022C90.0333 9.17123 89.4104 8.90895 88.6563 8.90895ZM105.869 16.4167C105.082 16.2528 104.262 16.1545 103.475 16.1545C101.541 16.1545 99.7705 16.5807 98.2952 17.4331C96.8198 18.2855 95.6396 19.4658 94.8855 20.9411C94.0987 22.4492 93.7052 24.1868 93.7052 26.1867C93.7052 27.9243 94.0987 29.4652 94.8527 30.875C95.6068 32.252 96.6559 33.3666 98.0657 34.1207C99.4099 34.8748 100.984 35.2682 102.754 35.2682C104.787 35.2682 106.524 34.842 107.901 34.0551L107.934 34.0224V30.0881L107.77 30.2193C107.147 30.6783 106.426 31.0717 105.705 31.3012C104.951 31.5635 104.262 31.6946 103.672 31.6946C101.967 31.6946 100.623 31.2028 99.6721 30.1209C98.6886 29.0718 98.1968 27.6293 98.1968 25.8261C98.1968 23.9573 98.6886 22.482 99.7049 21.4001C100.721 20.3182 102.065 19.7608 103.705 19.7608C105.082 19.7608 106.491 20.2198 107.77 21.1378L107.934 21.2689V17.1052L107.901 17.0724C107.344 16.8429 106.721 16.5807 105.869 16.4167ZM119.933 16.2856C118.884 16.2856 117.901 16.6135 117.048 17.3019C116.327 17.8921 115.835 18.7445 115.409 19.7608H115.376V16.5807H111.114V34.7436H115.376V25.4654C115.376 23.8917 115.704 22.5803 116.425 21.6296C117.147 20.646 118.065 20.1542 119.179 20.1542C119.573 20.1542 119.966 20.2526 120.458 20.3182C120.917 20.4493 121.245 20.5804 121.474 20.7444L121.638 20.8755V16.6135L121.54 16.5807C121.245 16.384 120.655 16.2856 119.933 16.2856ZM131.539 16.1872C128.556 16.1872 126.163 17.0724 124.49 18.8101C122.786 20.5477 121.966 22.941 121.966 25.9572C121.966 28.7767 122.818 31.0717 124.458 32.7437C126.097 34.383 128.326 35.2354 131.113 35.2354C134.031 35.2354 136.359 34.3502 138.031 32.5798C139.736 30.8094 140.555 28.4489 140.555 25.531C140.555 22.6459 139.768 20.351 138.162 18.6789C136.621 17.0069 134.359 16.1872 131.539 16.1872ZM134.949 30.1537C134.162 31.17 132.916 31.6618 131.375 31.6618C129.834 31.6618 128.589 31.17 127.703 30.0881C126.818 29.0718 126.392 27.5965 126.392 25.7277C126.392 23.7934 126.851 22.3181 127.703 21.2689C128.589 20.2198 129.802 19.6953 131.343 19.6953C132.851 19.6953 134.031 20.187 134.883 21.2034C135.736 22.2197 136.195 23.695 136.195 25.6294C136.129 27.5965 135.769 29.1374 134.949 30.1537ZM150.063 24.1212C148.719 23.5639 147.866 23.1377 147.473 22.7771C147.145 22.4492 146.981 21.9902 146.981 21.4001C146.981 20.9083 147.178 20.4165 147.67 20.0887C148.161 19.7608 148.719 19.5969 149.538 19.5969C150.26 19.5969 151.014 19.728 151.735 19.9247C152.456 20.1215 153.112 20.4165 153.636 20.8099L153.8 20.9411V16.9413L153.702 16.9085C153.21 16.7118 152.555 16.5151 151.768 16.3512C150.981 16.22 150.26 16.1545 149.669 16.1545C147.637 16.1545 145.965 16.6462 144.653 17.7281C143.342 18.7445 142.719 20.1215 142.719 21.7279C142.719 22.5803 142.85 23.3344 143.145 23.9573C143.44 24.5802 143.866 25.1704 144.457 25.6621C145.047 26.1211 145.899 26.6457 147.079 27.1375C148.063 27.5637 148.817 27.8915 149.276 28.1538C149.735 28.4161 150.03 28.7112 150.26 28.9407C150.424 29.2029 150.522 29.5308 150.522 29.957C150.522 31.17 149.604 31.7602 147.735 31.7602C147.014 31.7602 146.26 31.629 145.375 31.334C144.489 31.0389 143.67 30.6127 142.981 30.1209L142.817 29.9898V34.1535L142.916 34.1863C143.539 34.4813 144.293 34.6781 145.211 34.9075C146.129 35.0715 146.948 35.2026 147.67 35.2026C149.866 35.2026 151.669 34.7108 152.948 33.6289C154.259 32.5798 154.948 31.2356 154.948 29.498C154.948 28.285 154.62 27.203 153.899 26.3834C152.948 25.5966 151.768 24.7769 150.063 24.1212ZM166.193 16.1872C163.21 16.1872 160.816 17.0724 159.144 18.8101C157.472 20.5477 156.62 22.941 156.62 25.9572C156.62 28.7767 157.472 31.0717 159.112 32.7437C160.751 34.383 162.98 35.2354 165.767 35.2354C168.685 35.2354 171.013 34.3502 172.685 32.5798C174.389 30.8094 175.209 28.4489 175.209 25.531C175.209 22.6459 174.422 20.351 172.816 18.6789C171.275 17.0069 169.013 16.1872 166.193 16.1872ZM169.57 30.1537C168.783 31.17 167.537 31.6618 165.996 31.6618C164.423 31.6618 163.21 31.17 162.325 30.0881C161.439 29.0718 161.013 27.5965 161.013 25.7277C161.013 23.7934 161.472 22.3181 162.325 21.2689C163.21 20.2198 164.423 19.6953 165.964 19.6953C167.439 19.6953 168.652 20.187 169.504 21.2034C170.357 22.2197 170.816 23.695 170.816 25.6294C170.816 27.5965 170.39 29.1374 169.57 30.1537ZM197.995 20.0887V16.5807H193.7V11.2039L193.569 11.2367L189.503 12.4497L189.405 12.4825V16.5807H182.979V14.2857C182.979 13.2366 183.241 12.417 183.7 11.8924C184.159 11.3678 184.848 11.1056 185.7 11.1056C186.29 11.1056 186.913 11.2367 187.602 11.5318L187.766 11.6301V7.92539L187.667 7.89261C187.077 7.6959 186.29 7.56476 185.274 7.56476C183.995 7.56476 182.881 7.85982 181.864 8.3516C180.848 8.90895 180.094 9.66301 179.537 10.6793C178.979 11.6629 178.684 12.7776 178.684 14.0562V16.5807H175.701V20.0559H178.684V34.7436H182.979V20.0887H189.405V29.4324C189.405 33.2683 191.208 35.2026 194.815 35.2026C195.405 35.2026 196.028 35.1043 196.618 35.0059C197.241 34.8748 197.7 34.7108 197.962 34.5797L197.995 34.5469V31.0389L197.831 31.17C197.569 31.334 197.339 31.4651 196.946 31.5635C196.618 31.6618 196.323 31.6946 196.093 31.6946C195.241 31.6946 194.651 31.4979 194.224 31.0061C193.831 30.5471 193.634 29.7931 193.634 28.6784V20.0887H197.995Z" fill="#737373"/>
<path d="M0.00537109 0.974976H20.1026V21.0723H0.00537109V0.974976Z" fill="#F25022"/>
<path d="M22.2008 0.974976H42.2981V21.0723H22.2008V0.974976Z" fill="#7FBA00"/>
<path d="M0.00537109 23.1705H20.1026V43.2678H0.00537109V23.1705Z" fill="#00A4EF"/>
<path d="M22.2008 23.1705H42.2981V43.2678H22.2008V23.1705Z" fill="#FFB900"/>
</g>
</g>
<defs>
<clipPath id="clip0_1_812">
<rect width="198" height="42.2928" fill="white" transform="translate(0 0.974976)"/>
</clipPath>
<clipPath id="clip1_1_812">
<rect width="198" height="42.2928" fill="white" transform="translate(0 0.974976)"/>
</clipPath>
</defs>
</svg>
