<svg width="198" height="54" viewBox="0 0 198 54" fill="none" xmlns="http://www.w3.org/2000/svg">
<g clip-path="url(#clip0_1_795)">
<g clip-path="url(#clip1_1_795)">
<path d="M23.9249 21.8407C21.2003 9.82129 15.5216 6.62158 14.073 4.35971C13.4757 3.3633 12.9465 2.32757 12.4892 1.25964C12.4127 2.3274 12.2721 3.00009 11.3645 3.80981C9.54216 5.43458 1.80268 11.7415 1.15135 25.3981C0.544505 38.1312 10.512 45.9828 11.8289 46.7943C12.8415 47.2925 14.0748 46.8049 14.6763 46.3476C19.4812 43.05 26.0462 34.2588 23.9302 21.8407" fill="#10AA50"/>
<path d="M12.9021 40.0139C12.6512 43.1656 12.4714 44.9968 11.8344 46.7977C11.8344 46.7977 12.2526 49.7982 12.5462 52.9765H13.5855C13.8334 50.7383 14.2119 48.5166 14.7191 46.3226C13.3737 45.6606 12.9537 42.7794 12.9021 40.0139Z" fill="#B8C4C2"/>
<path d="M14.7173 46.3244C13.3577 45.6962 12.9644 42.7545 12.9039 40.0139C13.2402 35.4931 13.3382 30.9578 13.1975 26.4267C13.1264 24.0491 13.2314 4.40592 12.6121 1.53009C13.0357 2.50411 13.5238 3.44879 14.0731 4.35787C15.5217 6.62152 21.2022 9.82124 23.925 21.8407C26.0463 34.2373 19.5169 43.0054 14.7173 46.3244Z" fill="#12924F"/>
<path d="M193.923 41.9787C193.341 41.9786 192.772 41.8065 192.287 41.4838C191.802 41.1612 191.424 40.7025 191.199 40.1654C190.975 39.6283 190.914 39.0368 191.025 38.4652C191.135 37.8937 191.412 37.3676 191.821 36.9531C192.23 36.5386 192.752 36.2543 193.322 36.1358C193.892 36.0173 194.485 36.0699 195.025 36.2871C195.565 36.5043 196.029 36.8764 196.358 37.3565C196.687 37.8366 196.867 38.4033 196.875 38.9854C196.886 39.3779 196.817 39.7685 196.673 40.1338C196.529 40.499 196.312 40.8314 196.037 41.1109C195.761 41.3905 195.432 41.6114 195.068 41.7606C194.705 41.9097 194.316 41.9839 193.923 41.9787ZM193.923 36.3409C193.391 36.3374 192.87 36.4918 192.426 36.7846C191.982 37.0774 191.635 37.4955 191.428 37.9857C191.222 38.476 191.166 39.0165 191.267 39.5387C191.368 40.061 191.622 40.5415 191.996 40.9193C192.371 41.2972 192.849 41.5555 193.37 41.6614C193.891 41.7674 194.432 41.7162 194.924 41.5144C195.417 41.3127 195.838 40.9694 196.135 40.528C196.432 40.0867 196.591 39.5672 196.592 39.0352C196.599 38.6816 196.535 38.3302 196.404 38.0018C196.272 37.6734 196.076 37.3748 195.827 37.1235C195.579 36.8722 195.282 36.6735 194.955 36.5391C194.627 36.4047 194.277 36.3373 193.923 36.3409ZM194.635 40.8931L193.873 39.2506H193.259V40.8931H192.812V37.156H193.914C194.734 37.156 195.076 37.5119 195.076 38.2006C195.076 38.7487 194.818 39.0904 194.338 39.1954L195.124 40.8878L194.635 40.8931ZM193.277 38.8644H193.923C194.446 38.8644 194.645 38.6864 194.645 38.2095C194.645 37.7326 194.455 37.5706 193.866 37.5706H193.277V38.8644Z" fill="#21313C"/>
<path d="M149.983 39.2879C150.782 39.9267 152.378 40.1901 153.786 40.1901C155.61 40.1901 157.398 39.852 159.146 38.2735C160.926 36.6558 162.15 34.1804 162.15 30.2279C162.15 26.4303 160.705 23.348 157.74 21.5435C156.067 20.4917 153.9 20.0771 151.428 20.0771C150.716 20.0771 149.983 20.1145 149.566 20.3031C149.396 20.4379 149.275 20.6258 149.223 20.837C149.148 21.5132 149.148 26.6634 149.148 29.7083C149.148 32.8297 149.148 37.1826 149.223 37.7165C149.262 38.1685 149.49 38.9622 149.983 39.295M142.395 18.3865C143.041 18.3865 145.496 18.4986 146.639 18.4986C148.774 18.4986 150.25 18.3865 154.241 18.3865C157.587 18.3865 160.402 19.2887 162.415 21.0167C164.85 23.1238 166.152 26.0548 166.152 29.6264C166.152 34.7018 163.839 37.6346 161.513 39.2879C159.199 41.0176 156.19 41.9946 151.903 41.9946C149.622 41.9946 145.705 41.9199 142.436 41.8825H142.368C142.215 41.5818 142.647 40.409 142.914 40.3788C143.804 40.2791 144.039 40.2435 144.448 40.0745C145.139 39.7915 145.301 39.4391 145.377 38.1988C145.491 35.8675 145.454 33.086 145.454 29.9272C145.454 27.6724 145.491 23.2733 145.416 21.8816C145.301 20.7177 144.809 20.417 143.815 20.191C143.109 20.0411 142.396 19.9283 141.679 19.8529C141.604 19.6269 142.188 18.6071 142.379 18.3865" fill="#21313C"/>
<path d="M175.575 20.2942C175.424 20.3316 175.234 20.7089 175.234 20.8957C175.194 22.25 175.157 25.7825 175.157 28.2259C175.167 28.2726 175.19 28.3154 175.224 28.349C175.258 28.3825 175.301 28.4053 175.347 28.4145C175.84 28.4519 177.058 28.4911 178.085 28.4911C179.53 28.4911 180.366 28.3024 180.822 28.0764C182.039 27.4749 182.601 26.158 182.601 24.7308C182.601 21.4599 180.32 20.2195 176.937 20.2195C176.479 20.2137 176.022 20.2387 175.568 20.2942M184.199 35.3318C184.199 32.0236 181.765 30.1443 177.316 30.1443C177.127 30.1443 175.714 30.1069 175.378 30.1817C175.264 30.219 175.15 30.2938 175.15 30.3703C175.15 32.739 175.111 36.5348 175.226 38.0386C175.303 38.6775 175.76 39.5797 176.328 39.8431C176.937 40.1812 178.305 40.256 179.255 40.256C181.879 40.256 184.199 38.7914 184.199 35.3318ZM168.706 18.4523C169.049 18.4523 170.06 18.5644 172.646 18.5644C175.079 18.5644 177.056 18.4897 179.409 18.4897C182.336 18.4897 186.365 19.5432 186.365 23.9032C186.365 26.0388 184.845 27.7757 182.868 28.6032C182.754 28.6405 182.754 28.7153 182.868 28.7527C185.682 29.4645 188.152 31.196 188.152 34.5043C188.152 37.7378 186.137 39.7684 183.21 41.0461C181.43 41.8363 179.218 42.0979 176.981 42.0979C175.271 42.0979 170.687 41.9199 168.138 41.9484C167.871 41.8363 168.382 40.6315 168.61 40.4446C169.194 40.4267 169.773 40.3358 170.334 40.1741C171.246 39.9499 171.354 39.6563 171.468 38.302C171.544 37.1363 171.544 32.9632 171.544 29.993C171.544 25.932 171.584 23.1896 171.544 21.8353C171.507 20.7836 171.126 20.4437 170.404 20.2568C169.834 20.143 168.884 20.0308 168.124 19.9187C167.934 19.7301 168.519 18.6018 168.708 18.4523" fill="#21313C"/>
<path d="M32.3443 41.9786C32.2464 41.738 32.2067 41.4776 32.2286 41.2187C32.2201 41.0422 32.2601 40.8668 32.3443 40.7115C32.836 40.6406 33.3232 40.5414 33.8035 40.4143C34.4762 40.247 34.7289 39.8804 34.7681 39.0227C34.8784 36.9957 34.8855 33.1927 34.8464 30.5198V30.4415C34.8464 30.1532 34.8464 29.7616 34.4905 29.4858C33.8649 29.0933 33.1857 28.7936 32.4742 28.596C32.1556 28.5017 31.9795 28.3344 31.9884 28.1387C31.9973 27.9429 32.1984 27.7115 32.613 27.6297C33.7146 27.5176 36.6011 26.8289 37.7347 26.3057C37.8514 26.4578 37.9055 26.6488 37.886 26.8395C37.886 26.957 37.8682 27.0816 37.8557 27.2097C37.8237 27.587 37.7881 28.0159 37.7881 28.443C37.795 28.4948 37.8164 28.5438 37.8496 28.5842C37.8829 28.6246 37.9268 28.6549 37.9763 28.6718C38.0259 28.6886 38.0792 28.6913 38.1302 28.6794C38.1812 28.6676 38.2279 28.6418 38.265 28.6049C40.4237 26.9125 42.3581 26.3092 43.3493 26.3092C44.9812 26.3092 46.2518 27.0887 47.236 28.6939C47.2585 28.7326 47.2907 28.7649 47.3293 28.7877C47.368 28.8104 47.4118 28.8229 47.4566 28.8238C47.4974 28.8234 47.5375 28.8132 47.5734 28.794C47.6093 28.7748 47.6401 28.7471 47.6631 28.7135C49.6473 27.2079 51.6138 26.3092 52.9307 26.3092C56.0414 26.3092 57.9011 28.6387 57.9011 32.5378C57.9011 33.659 57.8904 35.0809 57.8797 36.4067C57.8708 37.5705 57.862 38.6614 57.862 39.416C57.862 39.5939 58.1075 40.1065 58.4759 40.2079C58.9315 40.4303 59.5882 40.5442 60.4192 40.6866H60.4513C60.5136 40.9108 60.3819 41.7811 60.2555 41.959C60.0491 41.959 59.7643 41.9412 59.4084 41.9234C58.7624 41.8914 57.8762 41.8469 56.8458 41.8469C54.7779 41.8469 53.6977 41.8861 52.6655 41.9537C52.5872 41.6956 52.5605 40.8628 52.6548 40.6884C53.0823 40.6215 53.5054 40.5294 53.9219 40.4125C54.5804 40.1954 54.7708 39.8965 54.8117 39.0227C54.8277 38.4016 54.947 32.9293 54.7352 31.6302C54.5394 30.2831 53.5251 28.7063 51.3059 28.7063C50.482 28.7063 49.1526 29.0498 47.8855 30.0108C47.8069 30.0999 47.7627 30.2141 47.7609 30.3329V30.3596C47.9104 31.0608 47.9104 31.8794 47.9104 33.1162C47.9104 33.828 47.9104 34.5701 47.9015 35.3122C47.8926 36.8213 47.8855 38.245 47.9104 39.3217C47.9104 40.0549 48.3536 40.231 48.7113 40.3716C48.9052 40.4143 49.0583 40.4517 49.2131 40.4873C49.5103 40.5603 49.8199 40.635 50.2809 40.708C50.3491 41.0206 50.343 41.3449 50.2631 41.6547C50.2442 41.771 50.1985 41.8813 50.1296 41.9768C48.98 41.9377 47.8001 41.9039 46.097 41.9039C45.5809 41.9039 44.7392 41.9252 43.9953 41.9448C43.392 41.9608 42.8226 41.9768 42.4987 41.9786C42.4111 41.7719 42.3721 41.5478 42.3848 41.3237C42.3666 41.1125 42.4079 40.9005 42.504 40.7115L42.9614 40.6279C43.36 40.5567 43.7052 40.4962 44.0291 40.4143C44.5915 40.2364 44.8033 39.9303 44.8442 39.2131C44.9545 37.5403 45.0399 32.7193 44.8033 31.5128C44.4011 29.5766 43.2995 28.5942 41.527 28.5942C40.4895 28.5942 39.1779 29.0943 38.1066 29.8969C38.0036 29.9972 37.9224 30.1178 37.8682 30.251C37.814 30.3842 37.7879 30.5272 37.7916 30.671C37.7916 31.2458 37.7916 31.9292 37.7916 32.6624C37.7916 35.0826 37.7756 38.0955 37.8343 39.3982C37.8699 39.8004 38.0123 40.2773 38.7651 40.4517C38.9306 40.4997 39.2153 40.546 39.5463 40.6012C39.7367 40.6332 39.9449 40.667 40.1603 40.7062C40.2287 41.1323 40.1939 41.5687 40.0588 41.9786C39.7278 41.9786 39.3203 41.9572 38.8541 41.9377C38.1422 41.9056 37.2524 41.8665 36.2469 41.8665C35.0582 41.8665 34.2307 41.9056 33.5669 41.9377C33.1202 41.959 32.734 41.9768 32.3478 41.9786" fill="#21313C"/>
<path d="M70.5077 27.918C69.8654 27.9047 69.2337 28.0825 68.6926 28.4288C67.3721 29.2314 66.6994 30.8348 66.6994 33.191C66.6994 37.6008 68.9079 40.6813 72.0702 40.6813C72.9181 40.7082 73.7452 40.4154 74.3873 39.8609C75.3589 39.069 75.875 37.4496 75.875 35.1824C75.875 30.8383 73.7164 27.918 70.5042 27.918M71.1128 42.3168C65.4003 42.3168 63.3662 38.1258 63.3662 34.2054C63.3662 31.4665 64.4856 29.3257 66.6941 27.8397C68.2409 26.8821 70.0164 26.3573 71.8353 26.3199C76.1936 26.3199 79.2385 29.4538 79.2385 33.9438C79.2385 36.994 78.023 39.4036 75.722 40.9091C74.6168 41.5854 72.6966 42.3168 71.1128 42.3168Z" fill="#21313C"/>
<path d="M128.665 27.918C128.021 27.9034 127.388 28.0813 126.846 28.4288C125.526 29.2314 124.853 30.8348 124.853 33.191C124.853 37.6008 127.062 40.6813 130.224 40.6813C131.074 40.71 131.904 40.4171 132.548 39.8609C133.52 39.069 134.034 37.4496 134.034 35.1824C134.034 30.8383 131.877 27.918 128.665 27.918ZM129.274 42.3168C123.561 42.3168 121.527 38.1258 121.527 34.2071C121.527 31.4648 122.646 29.3257 124.857 27.8397C126.403 26.8815 128.178 26.3566 129.996 26.3199C134.354 26.3199 137.399 29.4556 137.399 33.942C137.399 36.9958 136.184 39.4036 133.883 40.9073C132.778 41.5854 130.858 42.3168 129.274 42.3168Z" fill="#21313C"/>
<path d="M109.431 27.7685C107.671 27.7685 106.532 29.1584 106.532 31.3099C106.532 33.4614 107.513 36.0187 110.269 36.0187C110.743 36.0187 111.6 35.8087 112.026 35.3407C112.666 34.7516 113.094 33.5344 113.094 32.2495C113.094 29.4431 111.727 27.7685 109.44 27.7685M109.212 42.6175C108.715 42.612 108.225 42.7346 107.789 42.9734C106.395 43.8632 105.749 44.753 105.749 45.7869C105.749 46.755 106.125 47.5256 106.933 48.209C107.911 49.0383 109.232 49.4422 110.967 49.4422C114.382 49.4422 115.912 47.6057 115.912 45.7869C115.912 44.5199 115.277 43.671 113.969 43.1905C112.962 42.8221 111.278 42.6193 109.218 42.6193M109.445 51.3393C107.395 51.3393 105.918 50.9068 104.656 49.9352C103.429 48.9884 102.877 47.5826 102.877 46.6109C102.89 45.9847 103.129 45.3844 103.55 44.9203C103.905 44.5145 104.733 43.7546 106.646 42.4395C106.676 42.4269 106.701 42.4058 106.719 42.3789C106.736 42.352 106.746 42.3205 106.746 42.2882C106.746 42.2523 106.735 42.2172 106.713 42.1887C106.691 42.1603 106.66 42.1401 106.625 42.1316C105.05 41.5284 104.575 40.53 104.43 39.9961C104.43 39.9765 104.43 39.9463 104.414 39.9125C104.37 39.7025 104.327 39.5032 104.614 39.2985C104.834 39.1419 105.187 38.9319 105.564 38.7095C106.097 38.4147 106.607 38.0822 107.093 37.7147C107.119 37.6866 107.138 37.653 107.149 37.6164C107.16 37.5797 107.163 37.541 107.157 37.5032C107.15 37.4654 107.136 37.4296 107.114 37.3983C107.091 37.3671 107.062 37.3414 107.029 37.3232C104.697 36.5401 103.523 34.8086 103.523 32.1623C103.516 31.3371 103.708 30.5224 104.083 29.7872C104.457 29.0521 105.004 28.4182 105.676 27.9393C106.614 27.1972 108.968 26.3057 110.494 26.3057H110.582C112.15 26.343 113.035 26.6723 114.259 27.1243C114.956 27.3761 115.694 27.4933 116.434 27.4695C117.731 27.4695 118.299 27.0584 118.786 26.5797C118.866 26.7953 118.908 27.0228 118.911 27.2524C118.941 27.7996 118.792 28.3416 118.487 28.7971C118.222 29.1655 117.598 29.4324 117.026 29.4324C116.968 29.4324 116.911 29.4324 116.848 29.4235C116.548 29.4024 116.25 29.3529 115.959 29.2758L115.813 29.3274C115.766 29.3951 115.797 29.4698 115.834 29.5659C115.843 29.5847 115.85 29.6044 115.855 29.6246C115.96 30.0996 116.03 30.5812 116.067 31.0661C116.067 33.8334 114.976 35.0382 113.796 35.9315C112.656 36.7874 111.301 37.3121 109.881 37.4477C109.851 37.4477 109.703 37.4602 109.426 37.4851C109.248 37.5011 109.016 37.5225 108.983 37.5225H108.949C108.693 37.5937 108.023 37.9122 108.023 38.5048C108.023 38.996 108.326 39.6064 109.773 39.7167L110.709 39.7826C112.617 39.916 114.999 40.0815 116.121 40.4606C116.864 40.7221 117.507 41.2115 117.956 41.8591C118.406 42.5067 118.64 43.2796 118.625 44.0678C118.625 46.5504 116.859 48.8852 113.903 50.3125C112.509 50.9783 110.983 51.3208 109.438 51.3144" fill="#21313C"/>
<path d="M100.7 40.6546C99.864 40.5425 99.2536 40.4286 98.5329 40.0905C98.3915 39.944 98.2983 39.7577 98.266 39.5566C98.1894 38.391 98.1894 35.0079 98.1894 32.7941C98.1894 30.9878 97.8869 29.4129 97.1217 28.2828C96.2087 27.0033 94.9168 26.2523 93.2439 26.2523C91.7615 26.2523 89.7844 27.2667 88.1507 28.6583C88.1116 28.6957 87.8606 28.9342 87.866 28.564C87.8713 28.1939 87.9283 27.4429 87.9639 26.9624C87.9797 26.8347 87.9654 26.7051 87.9221 26.584C87.8788 26.4629 87.8078 26.3535 87.7147 26.2648C86.647 26.7987 83.6519 27.5105 82.5432 27.6191C81.7353 27.7757 81.5306 28.5533 82.3937 28.8221H82.4062C83.0971 29.0126 83.7565 29.3027 84.3637 29.6834C84.7054 29.9468 84.668 30.3223 84.668 30.623C84.7054 33.1411 84.7054 37.0136 84.5915 39.1188C84.5541 39.9463 84.3246 40.2471 83.716 40.3984L83.7729 40.3788C83.3094 40.4949 82.8393 40.5829 82.3652 40.6422C82.1748 40.829 82.1748 41.9199 82.3652 42.1459C82.7461 42.1459 84.6787 42.0338 86.2804 42.0338C88.4835 42.0338 89.6242 42.1459 90.1955 42.1459C90.425 41.8825 90.4998 40.8682 90.3485 40.6422C89.8221 40.6184 89.2993 40.5427 88.7878 40.4162C88.181 40.2667 88.0279 39.9641 87.9905 39.2897C87.9158 37.5207 87.9158 33.7622 87.9158 31.2049C87.9158 30.4931 88.1044 30.1532 88.3322 29.9592C89.0921 29.283 90.3485 28.8327 91.4501 28.8327C92.5178 28.8327 93.2297 29.1709 93.7636 29.6211C94.3854 30.1637 94.7753 30.9243 94.8527 31.7459C95.004 33.1696 94.9648 36.033 94.9648 38.5084C94.9648 39.8627 94.8527 40.2026 94.358 40.3521C94.1302 40.4642 93.5215 40.5781 92.799 40.6528C92.5712 40.8788 92.646 41.9306 92.799 42.1566C93.7867 42.1566 94.9345 42.0445 96.6003 42.0445C98.6913 42.0445 100.022 42.1566 100.555 42.1566C100.782 41.8932 100.859 40.9109 100.708 40.6528" fill="#21313C"/>
</g>
</g>
<defs>
<clipPath id="clip0_1_795">
<rect width="198" height="53.38" fill="white" transform="translate(0 0.424988)"/>
</clipPath>
<clipPath id="clip1_1_795">
<rect width="198" height="53.388" fill="white" transform="translate(0 0.424988)"/>
</clipPath>
</defs>
</svg>
