<svg width="168" height="38" viewBox="0 0 168 38" fill="none" xmlns="http://www.w3.org/2000/svg">
<g clip-path="url(#clip0_1_826)">
<path d="M120.967 7.4354V32.1226H127.934V7.4354H120.967ZM66.1533 7.39355V32.1017H73.1829V12.9168L78.6643 12.9377C80.4635 12.9377 81.7188 13.3771 82.5766 14.2976C83.6854 15.4692 84.1248 17.3731 84.1248 20.8251V32.1017H90.9452V18.461C90.9452 8.7116 84.7315 7.39355 78.6643 7.39355H66.1533ZM132.202 7.4354V32.1226H143.5C149.525 32.1226 151.492 31.1184 153.605 28.8798C155.111 27.3107 156.073 23.8378 156.073 20.051C156.073 16.578 155.257 13.4817 153.814 11.5569C151.262 8.10488 147.537 7.4354 141.972 7.4354H132.202ZM139.106 12.7913H142.098C146.45 12.7913 149.253 14.737 149.253 19.7999C149.253 24.8629 146.45 26.8295 142.098 26.8295H139.106V12.7913ZM110.925 7.4354L105.109 26.9969L99.5438 7.4354H92.0121L99.9623 32.1226H110.005L118.038 7.4354H110.925ZM159.337 32.1226H166.304V7.4354H159.337V32.1226ZM178.878 7.4354L169.149 32.1017H176.012L177.56 27.7291H189.066L190.531 32.0808H198L188.188 7.4354H178.878ZM183.397 11.9335L187.623 23.4821H179.045L183.397 11.9335Z" fill="black"/>
<path d="M21.1934 11.536V8.14674C21.5281 8.12582 21.8628 8.1049 22.1976 8.1049C31.4867 7.812 37.5748 16.0969 37.5748 16.0969C37.5748 16.0969 31.0055 25.2186 23.955 25.2186C23.0135 25.2186 22.093 25.0721 21.2143 24.7792V14.4859C24.8337 14.9253 25.5659 16.5153 27.7208 20.1347L32.5537 16.0759C32.5537 16.0759 29.018 11.4523 23.0763 11.4523C22.4486 11.4314 21.821 11.4732 21.1934 11.536ZM21.1934 0.322144V5.38512L22.1976 5.32235C35.1061 4.88301 43.5374 15.9086 43.5374 15.9086C43.5374 15.9086 33.8717 27.6664 23.8085 27.6664C22.9298 27.6664 22.0721 27.5827 21.2143 27.4363V30.5745C21.9256 30.6582 22.6579 30.7209 23.3692 30.7209C32.742 30.7209 39.5205 25.9299 46.0898 20.2811C47.1777 21.1598 51.634 23.2729 52.5545 24.1934C46.3199 29.4238 31.7796 33.629 23.5366 33.629C22.7415 33.629 21.9884 33.5871 21.2352 33.5035V37.9179H56.8434V0.322144L21.1934 0.322144ZM21.1934 24.7792V27.4572C12.5319 25.909 10.126 16.8919 10.126 16.8919C10.126 16.8919 14.2893 12.2892 21.1934 11.536V14.465H21.1724C17.553 14.0257 14.7077 17.4149 14.7077 17.4149C14.7077 17.4149 16.3187 23.1265 21.1934 24.7792ZM5.81614 16.5153C5.81614 16.5153 10.9419 8.94175 21.2143 8.14674V5.38512C9.83305 6.30566 0 15.9295 0 15.9295C0 15.9295 5.56509 32.039 21.1934 33.5035V30.5745C9.72845 29.1518 5.81614 16.5153 5.81614 16.5153Z" fill="#76B900"/>
</g>
<defs>
<clipPath id="clip0_1_826">
<rect width="198" height="37.62" fill="white" transform="translate(0 0.309998)"/>
</clipPath>
</defs>
</svg>
